<?xml version="1.0" standalone="no"?>
<!DOCTYPE svg PUBLIC "-//W3C//DTD SVG 20010904//EN"
 "http://www.w3.org/TR/2001/REC-SVG-20010904/DTD/svg10.dtd">
<svg version="1.0" xmlns="http://www.w3.org/2000/svg"
 width="500.000000pt" height="500.000000pt" viewBox="0 0 500.000000 500.000000"
 preserveAspectRatio="xMidYMid meet">

<g transform="translate(0.000000,500.000000) scale(0.100000,-0.100000)"
fill="#000000" stroke="none">
<path d="M0 2500 l0 -2500 2500 0 2500 0 0 2500 0 2500 -2500 0 -2500 0 0
-2500z m2815 1545 c204 -45 340 -98 503 -196 485 -292 787 -854 758 -1411 -22
-422 -182 -780 -480 -1072 -254 -249 -588 -401 -956 -437 -395 -37 -813 88
-1120 335 -337 272 -538 639 -590 1075 -27 221 13 509 99 733 182 469 589 831
1072 954 177 45 251 53 429 49 132 -3 189 -9 285 -30z"/>
<path d="M2345 3994 c-161 -25 -355 -89 -485 -161 -571 -315 -897 -942 -819
-1578 12 -101 46 -241 79 -327 18 -49 25 -58 46 -58 31 0 31 16 -2 111 -85
248 -97 549 -32 819 121 504 510 924 1003 1083 478 154 991 39 1348 -303 372
-356 516 -858 391 -1371 -137 -566 -587 -1008 -1144 -1123 -254 -52 -476 -38
-724 45 -194 65 -339 154 -498 308 -108 103 -138 119 -138 70 0 -29 153 -178
265 -257 431 -305 1024 -337 1505 -81 140 75 241 151 366 274 134 133 226 260
304 420 95 196 140 351 159 559 74 772 -456 1463 -1204 1571 -123 18 -301 18
-420 -1z"/>
<path d="M3205 2969 c-67 -10 -90 -27 -80 -58 5 -16 15 -21 40 -21 l33 0 7
-98 c4 -55 10 -105 15 -111 4 -7 18 -11 31 -9 24 3 24 4 23 116 -1 100 1 112
17 112 32 0 49 12 49 36 0 42 -27 48 -135 33z"/>
<path d="M2956 2929 c-54 -64 -43 -116 32 -158 33 -18 42 -28 40 -45 -3 -18
-10 -21 -50 -21 -77 0 -91 -37 -27 -71 26 -13 39 -14 69 -5 108 32 112 153 7
204 -44 20 -45 29 -12 55 27 22 32 41 13 60 -20 20 -45 14 -72 -19z"/>
<path d="M2690 2910 c-18 -18 -20 -32 -20 -155 0 -161 -2 -159 115 -136 61 12
81 20 83 34 7 36 -18 50 -75 43 -48 -6 -53 -4 -53 14 0 13 10 22 32 28 63 16
60 72 -4 72 -23 0 -29 4 -24 16 3 9 6 20 6 25 0 5 15 9 33 9 43 0 59 12 55 41
-3 22 -8 24 -65 27 -52 2 -66 -1 -83 -18z"/>
<path d="M2439 2847 c-45 -34 -53 -64 -51 -189 2 -119 9 -148 38 -148 30 0 43
29 37 85 -3 30 -2 55 2 55 10 0 64 -38 96 -68 23 -20 30 -22 48 -13 33 18 25
46 -26 90 l-48 40 18 30 c24 41 22 83 -6 109 -26 24 -82 29 -108 9z m61 -65
c0 -5 -9 -17 -20 -27 -22 -20 -26 -14 -10 16 11 19 30 26 30 11z"/>
<path d="M2221 2828 c-38 -35 -69 -117 -81 -211 -12 -95 -6 -117 31 -117 23 0
39 29 39 69 0 28 3 31 30 31 24 0 31 -5 36 -27 4 -16 11 -34 17 -40 14 -18 46
-16 54 3 8 22 -24 238 -42 281 -17 40 -49 44 -84 11z m38 -140 c1 -12 -6 -18
-19 -18 -24 0 -23 -2 -8 40 10 30 12 32 19 14 4 -10 8 -27 8 -36z"/>
<path d="M1957 2831 c-27 -4 -53 -14 -58 -22 -5 -7 -9 -76 -9 -152 0 -113 3
-139 15 -143 8 -4 49 0 91 7 84 15 109 34 84 64 -12 14 -25 16 -67 12 -51 -5
-53 -4 -53 18 0 19 6 24 33 27 28 3 32 6 32 33 0 27 -4 30 -32 33 -27 3 -33 7
-33 28 0 20 5 24 31 24 41 0 69 16 69 40 0 18 -29 42 -47 39 -4 -1 -30 -5 -56
-8z"/>
<path d="M1767 2769 c-14 -8 -17 -24 -17 -79 0 -39 -3 -70 -7 -70 -5 0 -18 18
-31 40 -24 42 -38 48 -64 28 -12 -10 -20 -44 -28 -131 -13 -127 -8 -151 34
-145 23 3 33 32 35 98 l2 45 27 -48 c15 -26 35 -50 46 -53 38 -12 47 15 53
163 6 132 5 141 -13 151 -13 7 -26 7 -37 1z"/>
<path d="M3495 2597 c-61 -61 -44 -135 38 -166 32 -12 45 -37 28 -54 -7 -7
-33 -12 -59 -12 -40 0 -47 -3 -50 -22 -4 -29 33 -53 81 -53 53 0 107 52 107
103 0 42 -31 84 -77 103 -40 17 -42 33 -7 63 29 25 28 38 -4 59 -20 13 -24 12
-57 -21z"/>
<path d="M3322 2558 c-7 -7 -12 -40 -12 -80 0 -37 -3 -68 -7 -68 -5 0 -18 18
-31 40 -23 41 -50 51 -70 28 -6 -7 -16 -66 -22 -131 -13 -127 -8 -151 34 -145
23 3 34 32 35 98 l1 45 33 -49 c36 -56 45 -62 70 -44 15 11 19 36 24 150 5
104 3 141 -7 153 -15 18 -32 19 -48 3z"/>
<path d="M2923 2531 c-43 -27 -63 -69 -63 -133 1 -68 29 -132 69 -152 40 -21
56 -20 102 6 87 49 106 200 35 267 -35 33 -101 38 -143 12z m91 -67 c24 -23
22 -116 -3 -138 -43 -39 -85 7 -77 83 6 63 46 90 80 55z"/>
<path d="M2758 2499 c-16 -9 -18 -26 -18 -134 0 -133 9 -175 38 -175 38 0 42
18 35 159 -7 155 -14 174 -55 150z"/>
<path d="M2514 2481 c-44 -11 -54 -19 -54 -46 0 -25 26 -40 52 -30 19 8 28
-21 28 -96 0 -109 17 -142 61 -118 19 10 20 17 13 120 l-7 109 31 0 c35 0 52
31 32 55 -13 16 -100 19 -156 6z"/>
<path d="M2360 2425 c-6 -8 -11 -33 -9 -57 1 -24 2 -55 1 -69 -2 -26 -35 -69
-53 -69 -15 0 -37 59 -45 118 -7 57 -23 77 -54 67 -16 -5 -20 -15 -20 -49 0
-63 28 -145 60 -178 84 -84 204 29 186 176 -7 65 -39 94 -66 61z"/>
<path d="M1952 2418 c-26 -26 -12 -253 17 -267 23 -11 170 39 183 63 8 13 6
22 -6 34 -14 14 -22 14 -61 4 -65 -17 -65 -17 -66 36 -1 92 -12 137 -34 140
-11 1 -26 -3 -33 -10z"/>
<path d="M1709 2377 c-45 -30 -62 -68 -61 -138 1 -99 54 -165 124 -156 76 10
122 73 122 167 -1 70 -25 117 -69 136 -48 20 -77 18 -116 -9z m101 -76 c19
-37 12 -100 -14 -126 -41 -41 -76 -8 -76 71 0 51 15 74 50 74 19 0 33 -7 40
-19z"/>
<path d="M1477 2350 c-60 -48 -54 -129 12 -162 54 -27 67 -44 51 -63 -11 -13
-24 -15 -55 -10 -74 11 -88 -42 -19 -71 70 -29 154 23 154 96 0 36 -32 79 -72
98 -42 19 -49 45 -18 62 24 13 27 55 4 64 -24 9 -29 8 -57 -14z"/>
</g>
</svg>
